<svg xmlns="http://www.w3.org/2000/svg" viewBox="0 0 64 64" role="img" aria-label="Add Blocks">
  <rect width="64" height="64" rx="14" fill="#F7F9FA"/>
  <rect x="17" y="8" width="38" height="22" rx="6" fill="#EEF3F5"/>
  <rect x="17" y="34" width="38" height="22" rx="6" fill="#EEF3F5"/>
  <path d="M7 45h8M11 41v8" fill="none" stroke="#52656F" stroke-width="2.5" stroke-linecap="round"/>
  <g fill="#91C7DF" stroke="#4E91B2" stroke-width="1.5">
    <rect x="21" y="12" width="9" height="6" rx="1.5"/>
    <rect x="32" y="12" width="9" height="6" rx="1.5"/>
    <rect x="43" y="12" width="8" height="6" rx="1.5"/>
    <rect x="21" y="21" width="9" height="6" rx="1.5"/>
    <rect x="21" y="46" width="9" height="6" rx="1.5"/>
    <rect x="32" y="46" width="9" height="6" rx="1.5"/>
    <rect x="43" y="46" width="8" height="6" rx="1.5"/>
  </g>
  <g fill="none" stroke="#78909C" stroke-width="1.3" stroke-dasharray="2 2">
    <rect x="32" y="21" width="9" height="6" rx="1.5"/>
    <rect x="43" y="21" width="8" height="6" rx="1.5"/>
    <rect x="21" y="38" width="9" height="6" rx="1.5"/>
    <rect x="32" y="38" width="9" height="6" rx="1.5"/>
    <rect x="43" y="38" width="8" height="6" rx="1.5"/>
  </g>
</svg>
